<svg xmlns="http://www.w3.org/2000/svg" width="28" height="34" viewBox="0 0 28 34">
    <g fill="none" fill-rule="evenodd">
        <g fill="#FFF" fill-rule="nonzero">
            <g>
                <g>
                    <g>
                        <path d="M47.32 32.954c-.143-.085-.289-.166-.437-.243-.46-.238-.937-.443-1.426-.613-.165-.058-.333-.112-.502-.164-1.206-.366-2.459-.556-3.719-.564-.086 0-.176.007-.264.009l.015-.02c.083.003.166.011.249.011 3.48 0 6.301-2.815 6.301-6.288 0-3.473-2.82-6.288-6.301-6.288-.24.001-.48.016-.718.044-1.876-2.297-4.647-3.685-7.613-3.814V15h-.947v.024c-5.568.248-9.956 4.824-9.958 10.387.004 5.56 4.391 10.135 9.958 10.383v.024h.691c-.112.351-.17.717-.173 1.086C32.476 40.487 37.43 49 41.238 49c1.19 0 2.491-.832 3.719-2.085.168-.171.336-.352.502-.539.512-.584.988-1.2 1.426-1.841.15-.218.295-.441.438-.668C48.892 41.389 50 38.594 50 36.903c0-1.692-1.111-3.019-2.68-3.95zm-7.609-1.484c-1.194.147-2.362.462-3.468.935.34-.77.61-1.569.807-2.387.073-.018.149-.034.22-.052.766.62 1.667 1.051 2.631 1.26-.063.08-.124.165-.19.244zm-12.115-2.48c-2.87-.798-4.65-2.24-4.65-3.58 0-1.34 1.78-2.781 4.65-3.578-.213 1.18-.32 2.379-.319 3.579 0 1.2.106 2.397.32 3.578zm.628-3.58c-.006-1.284.12-2.566.375-3.825 1.107-.222 2.23-.344 3.36-.364v8.378c-1.13-.02-2.253-.142-3.36-.364-.254-1.259-.38-2.54-.375-3.824zm7.977-4.097c-.058.077-.122.151-.174.23l-.015.023c-.114.167-.219.34-.317.518-1.013 1.87-1.013 4.125 0 5.995.098.179.203.352.317.519.091.137.193.267.295.396.054.066.107.13.162.193.102.116.202.233.312.342-.11-.109-.21-.225-.312-.342-.055-.06-.109-.127-.162-.193-.014.08-.027.163-.043.243-1.107.221-2.23.343-3.36.364v-8.378c1.049.02 2.093.127 3.123.32.055-.079.116-.153.174-.23.154-.208.322-.406.502-.593-.18.187-.347.386-.502.595v-.002zm-3.296-1.032v-4.257c1.199.357 2.407 2.03 3.113 4.561-1.028-.184-2.069-.287-3.113-.307v.003zm-.947-4.254v4.25c-1.044.021-2.085.124-3.113.308.707-2.531 1.916-4.204 3.114-4.561v.003zm0 14.52v4.25c-1.198-.356-2.407-2.029-3.113-4.56 1.028.183 2.07.286 3.114.308v.001zm1.253 4.14c-.098.045-.2.083-.305.113v-4.25c1.045-.022 2.085-.125 3.113-.308-.277 1.065-.72 2.08-1.311 3.008-.58.385-1.087.87-1.497 1.433v.003zm7.964-14.943h.061c2.864.035 5.192 2.313 5.285 5.169.093 2.856-2.082 5.28-4.938 5.501-.115.007-.23.017-.347.017-.995-.009-1.968-.288-2.816-.806-.326-.202-.63-.437-.905-.703-.068-.066-.134-.134-.198-.204-.312-.334-.58-.706-.8-1.107-.823-1.528-.848-3.36-.066-4.91.165-.328.363-.638.591-.926.057-.071.117-.14.176-.208.998-1.142 2.437-1.805 3.955-1.822l.002-.001zm-1.733-.685c-.921.274-1.767.755-2.473 1.406-.356-1.532-1.06-2.963-2.057-4.18 1.744.473 3.316 1.435 4.53 2.771v.003zm-9.493-2.773c-1.062 1.315-1.795 2.864-2.137 4.519-1.658.341-3.21 1.073-4.528 2.134.886-3.24 3.422-5.771 6.668-6.655l-.003.002zm-6.665 11.6c1.318 1.061 2.87 1.793 4.528 2.135.342 1.654 1.075 3.203 2.137 4.518-3.244-.886-5.777-3.417-6.662-6.655l-.003.003zm22.97 15.892c-1.758 2.642-3.681 4.283-5.02 4.283-3.103 0-7.813-7.918-7.813-11.151.002-.405.094-.804.267-1.17.05-.113.106-.223.169-.33.174-.278.383-.533.62-.76.278-.268.582-.508.908-.715.969-.598 2.03-1.031 3.14-1.28.542-.13 1.09-.222 1.644-.28.365-.036.724-.06 1.066-.06 3.193 0 7.815 1.636 7.815 4.594.001 1.544-1.174 4.432-2.794 6.867l-.002.002z" transform="translate(-141.000000, -1834.000000) translate(0.000000, 830.000000) translate(0.000000, 409.000000) translate(119.000000, 580.000000)"/>
                    </g>
                </g>
            </g>
        </g>
    </g>
</svg>
