<svg xmlns="http://www.w3.org/2000/svg" width="24" height="24" viewBox="0 0 24 24">
    <g fill="none" fill-rule="evenodd">
        <g fill="#1a1a1a" fill-rule="nonzero">
            <g>
                <g>
                    <path d="M19.836 16.451l.058.102 3 6c.315.63-.102 1.365-.779 1.44L22 24H2c-.704 0-1.175-.702-.94-1.341l.046-.106 3-6c.247-.494.847-.694 1.341-.447.459.229.664.763.494 1.234l-.047.107L3.618 22h16.763l-2.275-4.553c-.23-.458-.074-1.01.345-1.283l.102-.058c.458-.23 1.01-.074 1.283.345zM12 0c4.296 0 8 3.338 8 8 0 1.325-.52 2.84-1.46 4.532-.599 1.082-1.36 2.216-2.244 3.38-.784 1.032-1.621 2.032-2.46 2.962l-.423.465-.387.413-.316.327c-.392.396-1.032.394-1.422-.002l-.44-.458-.512-.554-.388-.43c-.84-.947-1.666-1.947-2.43-2.97C5.314 12.716 4 10.119 4 8c0-4.662 3.704-8 8-8zm0 2C8.765 2 6 4.492 6 8c0 1.55 1.162 3.847 3.12 6.469.727.973 1.518 1.93 2.323 2.837l.19.212.366.403.352-.385c.802-.892 1.605-1.85 2.353-2.833.83-1.094 1.539-2.15 2.088-3.14C17.58 10.14 18 8.92 18 8c0-3.508-2.765-6-6-6zm0 3c1.657 0 3 1.343 3 3s-1.343 3-3 3-3-1.343-3-3 1.343-3 3-3zm0 2c-.552 0-1 .448-1 1s.448 1 1 1 1-.448 1-1-.448-1-1-1z" transform="translate(-150.000000, -1310.000000) translate(120.000000, 1280.000000) translate(30.000000, 30.000000)"/>
                </g>
            </g>
        </g>
    </g>
</svg>
