<svg xmlns="http://www.w3.org/2000/svg" width="16" height="16" viewBox="0 0 16 16">
    <g fill="none" fill-rule="evenodd">
        <g fill="#1a1a1a" fill-rule="nonzero">
            <g>
                <g>
                    <g>
                        <path d="M8 0c4.418 0 8 3.582 8 8s-3.582 8-8 8-8-3.582-8-8 3.582-8 8-8zm0 1.8C4.576 1.8 1.8 4.576 1.8 8c0 3.424 2.776 6.2 6.2 6.2 3.424 0 6.2-2.776 6.2-6.2 0-3.424-2.776-6.2-6.2-6.2zM5.773 9.203c.297-.263.748-.272 1.042-.017.706.515 1.664.515 2.36.006l.039-.03c.356-.266.86-.193 1.126.164.266.356.193.86-.161 1.124-1.287.983-3.072.983-4.356.002l-.044-.036c-.337-.29-.374-.8-.083-1.135zM5.569 5.5c.591 0 1.07.479 1.07 1.07 0 .59-.479 1.069-1.07 1.069-.59 0-1.069-.479-1.069-1.07 0-.59.479-1.069 1.07-1.069zm4.862 0c.59 0 1.069.479 1.069 1.07 0 .59-.479 1.069-1.07 1.069-.59 0-1.069-.479-1.069-1.07 0-.59.479-1.069 1.07-1.069z" transform="translate(-20 -345) translate(0 65) translate(0 260) translate(20 20)"/>
                    </g>
                </g>
            </g>
        </g>
    </g>
</svg>
