<svg xmlns="http://www.w3.org/2000/svg" width="20" height="20" viewBox="0 0 20 20">
    <g fill="none" fill-rule="evenodd">
        <g fill="#FFF" fill-rule="nonzero">
            <g>
                <g>
                    <path d="M15.776 14.037c1.118-1.49 1.74-3.23 1.74-5.217C17.516 3.975 13.665 0 8.82 0S0 3.975 0 8.82c0 4.845 3.975 8.82 8.82 8.82 1.987 0 3.85-.621 5.217-1.74l3.727 3.727c.248.249.621.373.87.373.248 0 .62-.124.87-.373.496-.497.496-1.242 0-1.739l-3.728-3.85zm-6.956.994c-3.478 0-6.336-2.733-6.336-6.211S5.342 2.484 8.82 2.484s6.335 2.858 6.335 6.336-2.857 6.211-6.335 6.211z" transform="translate(-767 -1202) translate(735 1186) translate(32 16)"/>
                </g>
            </g>
        </g>
    </g>
</svg>
