<svg xmlns="http://www.w3.org/2000/svg" width="24" height="24" viewBox="0 0 24 24">
    <g fill="none" fill-rule="evenodd">
        <g fill="#1a1a1a" fill-rule="nonzero">
            <g>
                <g>
                    <path d="M22 17c.513 0 .936.386.993.883L23 18v5c0 .513-.386.936-.883.993L22 24H2c-.513 0-.936-.386-.993-.883L1 23v-5c0-.552.448-1 1-1 .513 0 .936.386.993.883L3 18v4h18v-4c0-.513.386-.936.883-.993L22 17zM16 0c.513 0 .936.386.993.883L17 1v3h6c.513 0 .936.386.993.883L24 5v10c0 .513-.386.936-.883.993L23 16h-7v1c0 .513-.386.936-.883.993L15 18H9c-.552 0-1-.448-1-1v-1H1c-.513 0-.936-.386-.993-.883L0 15V5c0-.513.386-.936.883-.993L1 4h6V1c0-.513.386-.936.883-.993L8 0h8zm-2 14h-4v2h4v-2zm8-8H2v8h6v-1c0-.513.386-.936.883-.993L9 12h6c.552 0 1 .448 1 1v1h6V6zm-7-4H9v2h6V2z" transform="translate(-150.000000, -1669.000000) translate(120.000000, 1639.000000) translate(30.000000, 30.000000)"/>
                </g>
            </g>
        </g>
    </g>
</svg>
