<svg xmlns="http://www.w3.org/2000/svg" width="12" height="12" viewBox="0 0 12 12">
    <g fill="none" fill-rule="evenodd">
        <g fill="#1a1a1a" fill-rule="nonzero">
            <g>
                <g>
                    <g>
                        <g>
                            <path d="M10.79 1.21c.254.253.277.65.07.93l-.07.08L7.01 6l3.78 3.78c.28.28.28.732 0 1.01-.253.254-.65.277-.93.07l-.08-.07L6 7.01l-3.78 3.78c-.28.28-.732.28-1.01 0-.254-.253-.277-.65-.07-.93l.07-.08L4.99 6 1.21 2.22c-.28-.28-.28-.732 0-1.01.253-.254.65-.277.93-.07l.08.07L6 4.99l3.78-3.78c.28-.28.732-.28 1.01 0z" transform="translate(-1308 -255) translate(280 138) translate(0 107) translate(1000) translate(28 10)"/>
                        </g>
                    </g>
                </g>
            </g>
        </g>
    </g>
</svg>
