<svg xmlns="http://www.w3.org/2000/svg" width="12" height="12" viewBox="0 0 12 12">
    <g fill="none" fill-rule="evenodd">
        <g fill="#FFF" fill-rule="nonzero">
            <g>
                <g>
                    <path d="M6 0c3.314 0 6 2.686 6 6s-2.686 6-6 6-6-2.686-6-6 2.686-6 6-6zm0 2.75l-.102.007c-.366.05-.648.363-.648.743v1.75H3.5c-.414 0-.75.336-.75.75l.007.102c.05.366.363.648.743.648h1.75V8.5c0 .414.336.75.75.75l.102-.007c.366-.05.648-.363.648-.743V6.75H8.5c.414 0 .75-.336.75-.75l-.007-.102c-.05-.366-.363-.648-.743-.648H6.75V3.5c0-.414-.336-.75-.75-.75z" transform="translate(-1312 -158) translate(280 138) translate(1032 20)"/>
                </g>
            </g>
        </g>
    </g>
</svg>
