<svg xmlns="http://www.w3.org/2000/svg" width="16" height="16" viewBox="0 0 16 16">
    <g fill="none" fill-rule="evenodd">
        <g fill="#FFF" fill-rule="nonzero">
            <g>
                <g>
                    <g>
                        <path d="M10 4c.557 0 .942.345.994.875L11 5v10c0 .557-.345.942-.875.994L10 16H2c-.557 0-.942-.345-.994-.875L1 15V5c0-.557.345-.942.875-.994L2 4h8zm-1.5 8.25h-5v1.5h5v-1.5zM14 0c.6 0 1 .4 1 1v12h-2V2H4V0zM8.5 9.25h-5v1.5h5v-1.5zm0-3h-5v1.5h5v-1.5z" transform="translate(-20 -233) translate(0 65) translate(0 148) translate(20 20)"/>
                    </g>
                </g>
            </g>
        </g>
    </g>
</svg>
