<svg xmlns="http://www.w3.org/2000/svg" width="16" height="16" viewBox="0 0 16 16">
    <g fill="none" fill-rule="evenodd">
        <g fill="#FFF" fill-rule="nonzero">
            <g>
                <g>
                    <path d="M16 11v4c0 .553-.447 1-1 1h-4v-2h3v-3h2zM2 11v3h3v2H1c-.553 0-1-.447-1-1v-4h2zm6-3c3 0 4 2 4 2v2H4v-2s1-2 4-2zm0-5c1.105 0 2 .895 2 2s-.895 2-2 2-2-.895-2-2 .895-2 2-2zM5 0v2H2v3H0V1c0-.553.447-1 1-1h4zm10 0c.553 0 1 .447 1 1v4h-2V2h-3V0z" transform="translate(-300 -830) translate(280 814) translate(20 16)"/>
                </g>
            </g>
        </g>
    </g>
</svg>
