<svg xmlns="http://www.w3.org/2000/svg" width="24" height="24" viewBox="0 0 24 24">
    <g fill="none" fill-rule="evenodd">
        <g fill="#1a1a1a" fill-rule="nonzero">
            <g>
                <g>
                    <path d="M23 19c.513 0 .936.387.993.884L24 20v2c0 .512-.386.935-.883.993L23 23H1c-.513 0-.936-.386-.993-.884L0 22.001v-2c0-.553.448-1 1-1 .513 0 .936.386.993.883L2 20v1h20v-1c0-.513.386-.936.883-.994l.117-.006zM22.737.037C23.373-.138 24 .34 24 1v15c0 .45-.302.846-.737.964l-11 3-.01.003c-.032.009-.064.015-.097.02l-.03.005c-.041.005-.083.008-.126.008s-.085-.003-.126-.008c-.046-.006-.092-.015-.137-.028l.107.023c-.033-.005-.065-.011-.097-.02l-.01-.003-11-3C.302 16.847 0 16.452 0 16.001V1C0 .34.627-.138 1.263.036L12 2.964zM2 2.31v12.927l9 2.453V4.764L2 2.31zm20-.001l-9 2.455V17.69l9-2.453V2.309z" transform="translate(-150.000000, -3123.000000) translate(120.000000, 3093.000000) translate(30.000000, 30.000000)"/>
                </g>
            </g>
        </g>
    </g>
</svg>
