<svg xmlns="http://www.w3.org/2000/svg" width="16" height="16" viewBox="0 0 16 16">
    <g fill="none" fill-rule="evenodd" opacity=".496">
        <g fill="#FFF" fill-rule="nonzero">
            <g>
                <g>
                    <path d="M14.269 1c.37 0 .676.293.724.672l.007.106v12.444c0 .43-.327.778-.731.778-.37 0-.677-.293-.725-.672l-.007-.106V1.778c0-.43.328-.778.732-.778zM6.428 3.006c.26.276.283.708.07 1.012l-.07.088-2.932 3.116h7.43c.403 0 .73.348.73.778 0 .394-.274.72-.631.77l-.1.008-7.429-.001 2.932 3.117c.26.277.283.709.07 1.013l-.07.087c-.26.277-.666.302-.953.076l-.082-.076L1.214 8.55l-.062-.075-.01-.014.072.089c-.033-.036-.063-.074-.088-.114-.016-.025-.031-.051-.044-.079l-.011-.023c-.011-.025-.021-.05-.03-.077l-.012-.038c-.006-.022-.011-.045-.015-.069-.011-.058-.015-.117-.014-.175V8c0-.04.003-.08.008-.118l.008-.044c.004-.02.009-.041.015-.061l.014-.047.028-.07.013-.027c.015-.03.031-.057.049-.083l.008-.013c.024-.033.047-.061.071-.087l4.18-4.444c.285-.304.748-.304 1.034 0z" transform="translate(-214 -75) translate(0 65) translate(214 10)"/>
                </g>
            </g>
        </g>
    </g>
</svg>
