<svg xmlns="http://www.w3.org/2000/svg" width="20" height="20" viewBox="0 0 20 20">
    <g fill="none" fill-rule="evenodd">
        <g fill="#1A1A1A" fill-rule="nonzero">
            <g>
                <g>
                    <g>
                        <g>
                            <path d="M12.917 6.667c.23 0 .416.186.416.416v5.834c0 .23-.186.416-.416.416h-1.39c-.23 0-.416-.186-.416-.416V7.083c0-.23.187-.416.417-.416h1.389zm-4.445 0c.23 0 .417.186.417.416v5.834c0 .23-.187.416-.417.416H7.083c-.23 0-.416-.186-.416-.416V7.083c0-.23.186-.416.416-.416h1.39z" transform="translate(-1020 -460) translate(280 412) translate(640 23) translate(0 25) translate(100)"/>
                        </g>
                    </g>
                </g>
            </g>
        </g>
    </g>
</svg>
