<svg xmlns="http://www.w3.org/2000/svg" width="16" height="16" viewBox="0 0 16 16">
    <g fill="none" fill-rule="evenodd">
        <g fill="#FFF" fill-rule="nonzero">
            <g>
                <g>
                    <g>
                        <path d="M15.746 7.233L8.346.139c-.193-.185-.499-.185-.692 0L.247 7.24C.09 7.397 0 7.613 0 7.833c0 .46.374.834.833.834H2V15c0 .552.448 1 1 1h2.833c.276 0 .5-.224.5-.5v-4.333c0-.092.075-.167.167-.167h3c.091 0 .167.075.167.167V15.5c0 .276.224.5.5.5H13c.552 0 1-.448 1-1V8.667h1.167c.459 0 .833-.374.833-.834 0-.22-.09-.436-.254-.6z" transform="translate(-20 -121) translate(0 65) translate(0 36) translate(20 20)"/>
                    </g>
                </g>
            </g>
        </g>
    </g>
</svg>
