<svg xmlns="http://www.w3.org/2000/svg" width="14" height="14" viewBox="0 0 14 14">
    <g fill="none" fill-rule="evenodd">
        <g fill="#1A1A1A" fill-rule="nonzero">
            <g>
                <g>
                    <g>
                        <g>
                            <path d="M7 0c3.866 0 7 3.134 7 7s-3.134 7-7 7-7-3.134-7-7 3.134-7 7-7zm0 3.208l-.119.008c-.427.058-.756.424-.756.867v2.042H4.083c-.483 0-.875.392-.875.875l.008.119c.058.427.424.756.867.756h2.042v2.042c0 .483.392.875.875.875l.119-.008c.427-.058.756-.424.756-.867V7.875h2.042c.483 0 .875-.392.875-.875l-.008-.119c-.058-.427-.424-.756-.867-.756H7.875V4.083c0-.483-.392-.875-.875-.875z" transform="translate(-478 -701) translate(280 436) translate(0 250) translate(185) translate(13 15)"/>
                        </g>
                    </g>
                </g>
            </g>
        </g>
    </g>
</svg>
