<svg xmlns="http://www.w3.org/2000/svg" width="20" height="20" viewBox="0 0 20 20">
    <g fill="none" fill-rule="evenodd">
        <g fill="#7D1DD8" fill-rule="nonzero">
            <g>
                <g>
                    <path d="M17.5 0c1.3 0 2.367.991 2.489 2.26L20 2.5v15c0 1.3-.991 2.367-2.26 2.489L17.5 20h-15c-1.3 0-2.367-.991-2.489-2.26L0 17.5v-3.333c0-.46.373-.834.833-.834.41 0 .75.295.82.684l.014.15V17.5c0 .41.294.75.683.82l.15.013h15c.41 0 .75-.294.82-.683l.013-.15v-15c0-.41-.294-.75-.683-.82l-.15-.013h-15c-.41 0-.75.294-.82.683l-.013.15v3.333c0 .46-.373.834-.834.834-.409 0-.749-.295-.82-.684L0 5.833V2.5C0 1.2.991.133 2.26.011L2.5 0h15zM9.64 4.314l.116.097 5 5 .01.01c.022.023.042.046.061.07l-.071-.08c.03.03.057.062.082.095.066.09.114.192.14.303l.007.031c.005.026.009.052.011.079l.002.026L15 10v.03l-.003.039L15 10c0 .045-.003.088-.01.131-.003.02-.007.039-.012.058-.003.017-.008.034-.013.05l-.016.05-.025.059-.021.043-.035.06-.016.023c-.029.042-.06.078-.092.111l-.004.004-5 5c-.326.326-.853.326-1.179 0-.289-.289-.321-.738-.096-1.063l.096-.115 3.577-3.578H.834C.373 10.833 0 10.46 0 10c0-.41.295-.75.684-.82l.15-.013 11.321-.001-3.578-3.577c-.289-.289-.321-.738-.096-1.063l.096-.115c.29-.29.739-.322 1.064-.097z" transform="translate(-1189.000000, -26.000000) translate(1152.000000, 11.000000) translate(37.000000, 15.000000)"/>
                </g>
            </g>
        </g>
    </g>
</svg>
