<svg xmlns="http://www.w3.org/2000/svg" width="24" height="24" viewBox="0 0 24 24">
    <g fill="none" fill-rule="evenodd">
        <g fill="#fff" fill-rule="nonzero">
            <g>
                <path d="M13.174.516l.113.027 10 3c.385.115.66.447.706.839L24 4.5v18c0 .512-.386.935-.883.993L23 23.5H1c-.513 0-.936-.386-.993-.884L0 22.501v-10c0-.513.386-.936.883-.994L1 11.501l3-.001v-3c0-.512.386-.935.883-.993L5 7.501h10c.513 0 .936.386.993.883l.007.117v13h6V5.244l-8-2.4V5.5c0 .512-.386.935-.883.993L13 6.5c-.513 0-.936-.386-.993-.884L12 5.501v-4c0-.63.572-1.093 1.174-.985zM4 13.5H2v8h2v-8zm10-4H6v12h8v-12zm-3 8c.552 0 1 .448 1 1 0 .513-.386.936-.883.994L11 19.5H9c-.552 0-1-.448-1-1 0-.513.386-.936.883-.994L9 17.501h2zm8-10c.513 0 .936.387.993.884l.007.117v10c0 .552-.448 1-1 1-.513 0-.936-.386-.993-.884L18 18.501v-10c0-.553.448-1 1-1zm-8 7c.552 0 1 .448 1 1 0 .513-.386.936-.883.994L11 16.5H9c-.552 0-1-.448-1-1 0-.513.386-.936.883-.994L9 14.501h2zm0-3c.552 0 1 .448 1 1 0 .513-.386.936-.883.994L11 13.5H9c-.552 0-1-.448-1-1 0-.513.386-.936.883-.994L9 11.501h2z" transform="translate(-130.000000, -776.000000) translate(130.000000, 776.000000)"/>
            </g>
        </g>
    </g>
</svg>
