<svg xmlns="http://www.w3.org/2000/svg" width="16" height="16" viewBox="0 0 16 16">
    <g fill="none" fill-rule="evenodd">
        <g fill="#FFF" fill-rule="nonzero">
            <g>
                <g>
                    <g>
                        <path d="M15.621 7.015l-1.8-.451c-.145-.586-.378-1.147-.691-1.664l.956-1.593c.118-.197.087-.449-.075-.611l-.711-.707c-.162-.162-.414-.193-.611-.075L11.1 2.87c-.517-.313-1.078-.545-1.664-.69L8.985.379C8.929.156 8.729 0 8.5 0h-1c-.23 0-.43.156-.485.379l-.451 1.8c-.586.145-1.147.378-1.664.691l-1.593-.956c-.197-.118-.449-.087-.611.075l-.707.711c-.162.162-.193.414-.075.611L2.87 4.9c-.313.517-.545 1.078-.69 1.664l-1.8.451C.157 7.07 0 7.27 0 7.5v1c0 .23.156.43.379.485l1.8.451c.145.586.378 1.147.691 1.664l-.956 1.593c-.118.197-.087.449.075.611l.707.707c.162.162.414.193.611.075L4.9 13.13c.517.313 1.078.545 1.664.69l.451 1.8c.055.223.255.38.485.38h1c.23 0 .43-.156.485-.379l.451-1.8c.586-.145 1.147-.377 1.664-.69l1.593.956c.197.118.449.087.611-.075l.707-.707c.162-.162.193-.414.075-.611L13.13 11.1c.313-.517.545-1.078.69-1.664l1.8-.451c.223-.055.38-.255.38-.485v-1c0-.23-.156-.43-.379-.485zM8 11c-1.657 0-3-1.343-3-3s1.343-3 3-3 3 1.343 3 3-1.343 3-3 3z" transform="translate(-20 -345) translate(0 65) translate(0 260) translate(20 20)"/>
                    </g>
                </g>
            </g>
        </g>
    </g>
</svg>
