<svg xmlns="http://www.w3.org/2000/svg" width="24" height="24" viewBox="0 0 24 24">
    <g fill="none" fill-rule="evenodd">
        <g fill="#1a1a1a" fill-rule="nonzero">
            <g>
                <g>
                    <path d="M15 22c.552 0 1 .448 1 1 0 .513-.386.936-.883.993L15 24H9c-.552 0-1-.448-1-1 0-.513.386-.936.883-.993L9 22h6zM12 0c4.97 0 9 4.03 9 9 0 3.406-1.91 6.454-4.847 7.981l-.153.076V19c0 .513-.386.936-.883.993L15 20H9c-.552 0-1-.448-1-1v-1.942l-.153-.077c-2.852-1.483-4.737-4.402-4.842-7.69L3 9c0-4.97 4.03-9 9-9zm0 2C8.134 2 5 5.134 5 9c0 2.876 1.752 5.424 4.375 6.486.378.153.625.52.625.927V18h4v-1.587c0-.367.2-.7.515-.875l.11-.052C17.248 14.424 19 11.876 19 9c0-3.866-3.134-7-7-7zM8.613 8.21l.094.083L10 9.585l1.293-1.292c.36-.36.928-.388 1.32-.083l.094.083L14 9.585l1.293-1.292c.36-.36.928-.388 1.32-.083l.094.083c.36.36.388.928.083 1.32l-.083.094-2 2c-.36.36-.928.388-1.32.083l-.094-.083L12 10.415l-1.293 1.292c-.36.36-.928.388-1.32.083l-.094-.083-2-2c-.39-.39-.39-1.024 0-1.414.36-.36.928-.388 1.32-.083z" transform="translate(-150.000000, -3765.000000) translate(120.000000, 3735.000000) translate(30.000000, 30.000000)"/>
                </g>
            </g>
        </g>
    </g>
</svg>
