<svg xmlns="http://www.w3.org/2000/svg" width="12" height="12" viewBox="0 0 12 12">
    <g fill="none" fill-rule="evenodd">
        <g fill="#810000" fill-rule="nonzero">
            <g>
                <g>
                    <g>
                        <path d="M8.698.567c.756-.756 1.981-.756 2.737 0s.756 1.981 0 2.738l-7.08 7.05-.157.105-3.5 1.5c-.414.178-.834-.242-.656-.657l1.5-3.5.105-.155zm-.709 2.128L2.423 8.286l-.97 2.262 2.265-.971 5.588-5.565-1.317-1.317zm2.739-1.421c-.365-.365-.958-.365-1.322 0l-.711.712 1.32 1.32.713-.71c.304-.304.355-.766.152-1.123l-.068-.103z" transform="translate(-856 -263) translate(280 234) translate(576 28) translate(0 1)"/>
                    </g>
                </g>
            </g>
        </g>
    </g>
</svg>
