<svg xmlns="http://www.w3.org/2000/svg" width="60" height="60" viewBox="0 0 60 60">
    <g fill="none" fill-rule="evenodd">
        <g>
            <g>
                <g transform="translate(-320 -345) translate(280 303) translate(40 42)">
                    <circle cx="30" cy="30" r="30" fill="#EAEAEA"/>
                    <rect width="60" height="60" fill="#EAEAEA" rx="12"/>
                    <g fill-rule="nonzero">
                        <path fill="#43A6DD" d="M9.192 31.238H4.596c-.395.002-.726-.295-.766-.686l-.712-7.085-2.541-.633c-.34-.086-.577-.39-.577-.739v-8.38c.003-2.104 1.716-3.808 3.83-3.81h6.128c2.114.002 3.828 1.706 3.83 3.81v8.38c0 .35-.24.655-.58.74l-2.541.632-.709 7.085c-.04.391-.371.688-.766.686z" transform="translate(22 9.762)"/>
                        <ellipse cx="29" cy="12.762" fill="#6DC5F5" rx="4.788" ry="4.762"/>
                    </g>
                </g>
            </g>
        </g>
    </g>
</svg>
