<?xml version="1.0" standalone="no"?>
<!DOCTYPE svg PUBLIC "-//W3C//DTD SVG 20010904//EN"
 "http://www.w3.org/TR/2001/REC-SVG-20010904/DTD/svg10.dtd">
<svg version="1.0" xmlns="http://www.w3.org/2000/svg"
 width="968.000000pt" height="188.000000pt" viewBox="0 0 968.000000 188.000000"
 preserveAspectRatio="xMidYMid meet">

<g transform="translate(0.000000,188.000000) scale(0.100000,-0.100000)"
fill="#fff" stroke="none">
<path d="M0 1855 c0 -23 4 -25 45 -25 91 0 152 -45 301 -221 55 -64 365 -452
689 -863 l590 -745 72 -1 72 0 4 683 c3 654 4 686 24 768 44 179 119 296 224
348 37 18 78 31 101 31 34 0 38 3 38 25 l0 25 -400 0 -400 0 0 -25 c0 -22 5
-25 33 -25 50 0 129 -42 173 -93 53 -60 90 -139 122 -256 25 -94 25 -103 29
-511 3 -399 3 -414 -14 -393 -10 13 -250 311 -533 662 l-515 640 -327 0 -328
1 0 -25z"/>
<path d="M4370 1855 c0 -19 5 -25 23 -25 36 -1 101 -35 130 -70 65 -77 62 -23
67 -930 l5 -825 192 240 192 239 3 586 3 585 27 50 c14 28 37 60 50 72 27 26
88 53 118 53 15 0 20 7 20 25 l0 25 -415 0 -415 0 0 -25z"/>
<path d="M5480 1856 c0 -21 5 -24 49 -28 194 -19 210 -174 43 -419 -27 -41
-138 -181 -246 -311 -108 -131 -196 -240 -196 -244 0 -3 46 -69 103 -147 57
-78 159 -221 228 -317 180 -253 250 -323 364 -365 43 -16 90 -19 333 -23 l282
-4 0 25 c0 23 -3 25 -73 29 -80 5 -159 35 -223 85 -31 24 -706 911 -720 946
-6 17 174 237 328 400 237 251 388 347 545 347 50 0 53 1 53 25 l0 25 -435 0
-435 0 0 -24z"/>
<path d="M7820 1653 c-47 -126 -86 -235 -88 -243 -1 -8 59 -166 133 -350 301
-739 328 -811 333 -878 3 -40 0 -72 -8 -87 -13 -25 -49 -45 -80 -45 -15 0 -20
-7 -20 -25 l0 -25 380 0 380 0 0 25 c0 22 -4 25 -37 25 -52 0 -93 28 -131 88
-18 27 -78 159 -132 293 -55 134 -212 514 -348 844 -227 550 -250 600 -272
603 -24 2 -29 -9 -110 -225z"/>
<path d="M3258 1633 l-188 -236 0 -561 c0 -617 0 -622 -60 -704 -32 -45 -69
-68 -127 -80 -29 -6 -39 -13 -41 -30 l-3 -22 420 0 421 0 0 25 c0 19 -5 25
-22 25 -40 1 -103 36 -136 76 -63 76 -62 56 -62 941 0 442 -3 803 -7 802 -5 0
-92 -106 -195 -236z"/>
<path d="M411 575 c-36 -313 -162 -506 -342 -523 -44 -4 -49 -7 -49 -28 l0
-24 405 0 405 0 0 25 c0 22 -5 25 -32 25 -70 0 -156 59 -217 147 -52 76 -98
244 -108 390 -6 87 -7 93 -28 93 -20 0 -22 -8 -34 -105z"/>
<path d="M7324 342 c-101 -208 -153 -278 -214 -291 -26 -5 -36 -13 -38 -29
l-3 -22 331 0 331 0 -3 23 c-3 19 -11 23 -69 29 -100 9 -160 50 -194 131 -30
72 -29 213 1 325 6 19 3 22 -22 22 -28 -1 -34 -10 -120 -188z"/>
<path d="M9406 337 c-145 -90 -97 -314 71 -334 181 -21 273 212 128 323 -53
40 -143 45 -199 11z"/>
</g>
</svg>
