<svg xmlns="http://www.w3.org/2000/svg" width="48" height="48" fill="none"><g clip-path="url(#a)"><path fill="#002247" d="M15.809 27.982a1.907 1.907 0 0 1-1.349-3.256l5.723-5.722a1.908 1.908 0 0 1 1.348-.56h9.538a1.908 1.908 0 0 1 0 3.816h-8.747l-5.164 5.163a1.9 1.9 0 0 1-1.349.56ZM31.069 41.334H17.717a1.908 1.908 0 0 1-1.527-3.052l5.723-7.63c.332-.442.839-.719 1.39-.758a1.933 1.933 0 0 1 1.485.554l7.63 7.63a1.907 1.907 0 0 1-1.35 3.256Z"/><path fill="#7B90A7" d="M38.699 18.445a5.722 5.722 0 1 0 0-11.445 5.722 5.722 0 0 0 0 11.445Z"/><path fill="#7B90A7" d="M47.677 19.004a1.907 1.907 0 0 0-2.697 0l-5.415 5.414s-5.245-4.705-5.563-4.97a4.326 4.326 0 0 0-6.093.554L10.367 45.205c-1.342 1.928 1.31 4.105 2.94 2.412L34.555 25.54c.062-.073.103-.157.158-.233l3.683 3.157a1.9 1.9 0 0 0 1.256.472A1.9 1.9 0 0 0 41 28.377l6.676-6.676a1.907 1.907 0 0 0 0-2.697Z"/><path fill="#FAB501" d="M17.877 3.075a.478.478 0 0 0-.477-.478H6.6a.477.477 0 0 0-.477.478v2.7a.477.477 0 0 0 .477.477h4.923l-9.648 9.647a.477.477 0 0 0 0 .675L3.9 18.599a.477.477 0 0 0 .675 0l9.648-9.647v4.922a.477.477 0 0 0 .477.477h2.7a.477.477 0 0 0 .477-.477v-10.8Z"/></g><defs><clipPath id="a"><path fill="#fff" d="M0 0h48v48H0z"/></clipPath></defs></svg>